<?xml version="1.0" encoding="UTF-8"?>
<svg id="Capa_2" data-name="Capa 2" xmlns="http://www.w3.org/2000/svg" viewBox="0 0 458.34 325.21">
  <defs>
    <style>
      .cls-1 {
        fill: #f5f4f5;
      }
    </style>
  </defs>
  <g id="Capa_1-2" data-name="Capa 1">
    <g>
      <g>
        <path class="cls-1" d="M279.98,172.68c1.73,3.97,7.36,3.97,9.09,0L361.48,6.95c1.43-3.28-.97-6.95-4.55-6.95h-144.82c-3.58,0-5.98,3.67-4.55,6.95l72.41,165.74Z"/>
        <g>
          <path class="cls-1" d="M218.11,101.84L177.51,8.08c-1.7-3.92-7.25-3.92-8.95,0l-40.6,93.77h90.15Z"/>
          <path class="cls-1" d="M249.24,173.72l-19.1-44.1h-114.21l-19.1,44.1c-1.39,3.22.97,6.81,4.47,6.81h143.45c3.51,0,5.87-3.59,4.47-6.81Z"/>
        </g>
      </g>
      <g>
        <path class="cls-1" d="M43.97,291.25h-27.83l-5.49,12.88H0l25.05-55.66h10.18l25.13,55.66h-10.81l-5.57-12.88ZM40.55,283.14l-10.5-24.33-10.42,24.33h20.91Z"/>
        <path class="cls-1" d="M60.51,245.13h9.94v59h-9.94v-59Z"/>
        <path class="cls-1" d="M105.12,301.83c-2.39,1.91-5.96,2.86-9.54,2.86-9.3,0-14.63-4.93-14.63-14.31v-20.43h-7v-7.95h7v-9.7h9.94v9.7h11.37v7.95h-11.37v20.2c0,4.13,2.07,6.36,5.88,6.36,2.07,0,4.05-.56,5.57-1.75l2.78,7.08Z"/>
        <path class="cls-1" d="M102.42,282.9c0-12.72,9.54-21.71,22.58-21.71s22.66,8.99,22.66,21.71-9.46,21.79-22.66,21.79-22.58-9.06-22.58-21.79ZM137.64,282.9c0-8.11-5.41-13.28-12.64-13.28s-12.56,5.17-12.56,13.28,5.41,13.28,12.56,13.28,12.64-5.17,12.64-13.28Z"/>
        <path class="cls-1" d="M219.07,248.47l-24.25,55.66h-10.18l-24.33-55.66h11.21l18.53,42.94,18.69-42.94h10.34Z"/>
        <path class="cls-1" d="M250.4,279.25v24.89h-9.38v-5.17c-2.38,3.66-7,5.72-13.36,5.72-9.7,0-15.82-5.33-15.82-12.72s4.77-12.64,17.65-12.64h10.97v-.64c0-5.8-3.5-9.22-10.58-9.22-4.77,0-9.7,1.59-12.88,4.21l-3.9-7.24c4.53-3.5,11.13-5.25,17.97-5.25,12.25,0,19.32,5.8,19.32,18.05ZM240.46,290.85v-4.93h-10.26c-6.76,0-8.59,2.54-8.59,5.65,0,3.58,3.02,5.88,8.11,5.88s9.07-2.23,10.73-6.6Z"/>
        <path class="cls-1" d="M257.16,245.13h9.94v59h-9.94v-59Z"/>
        <path class="cls-1" d="M274.17,245.13h9.94v59h-9.94v-59Z"/>
        <path class="cls-1" d="M330.95,286.08h-33.32c1.19,6.2,6.36,10.18,13.76,10.18,4.77,0,8.51-1.51,11.53-4.61l5.33,6.12c-3.82,4.53-9.78,6.92-17.1,6.92-14.23,0-23.46-9.14-23.46-21.79s9.3-21.71,21.95-21.71,21.47,8.67,21.47,21.95c0,.79-.08,1.99-.16,2.94ZM297.55,279.48h24.09c-.79-6.12-5.49-10.34-12.01-10.34s-11.13,4.13-12.09,10.34Z"/>
        <path class="cls-1" d="M347.65,276.3c0-16.62,12.72-28.62,29.82-28.62,9.06,0,16.86,3.26,22.03,9.3l-6.68,6.28c-4.05-4.37-9.06-6.52-14.87-6.52-11.53,0-19.88,8.11-19.88,19.56s8.35,19.56,19.88,19.56c5.8,0,10.81-2.15,14.87-6.6l6.68,6.36c-5.17,6.04-12.96,9.3-22.11,9.3-17.02,0-29.74-12.01-29.74-28.62Z"/>
        <path class="cls-1" d="M397.43,282.9c0-12.72,9.54-21.71,22.58-21.71s22.66,8.99,22.66,21.71-9.46,21.79-22.66,21.79-22.58-9.06-22.58-21.79ZM432.65,282.9c0-8.11-5.41-13.28-12.64-13.28s-12.56,5.17-12.56,13.28,5.41,13.28,12.56,13.28,12.64-5.17,12.64-13.28Z"/>
        <path class="cls-1" d="M442.12,298.09c0-3.98,2.94-6.6,6.52-6.6s6.52,2.62,6.52,6.6-2.94,6.6-6.52,6.6-6.52-2.78-6.52-6.6Z"/>
      </g>
    </g>
  </g>
</svg>