<?xml version="1.0" encoding="UTF-8"?>
<svg id="Capa_2" data-name="Capa 2" xmlns="http://www.w3.org/2000/svg" xmlns:xlink="http://www.w3.org/1999/xlink" viewBox="0 0 320 71.77">
  <defs>
    <style>
      .cls-1 {
        fill: none;
      }

      .cls-2 {
        fill: #f5f4f5;
      }

      .cls-3 {
        clip-path: url(#clippath-1);
      }

      .cls-4 {
        fill: #f5f5f5;
      }

      .cls-5 {
        fill: #bf1540;
      }

      .cls-6 {
        clip-path: url(#clippath);
      }
    </style>
    <clipPath id="clippath">
      <rect class="cls-1" width="320" height="71.77"/>
    </clipPath>
    <clipPath id="clippath-1">
      <rect class="cls-1" width="320" height="71.77"/>
    </clipPath>
  </defs>
  <g id="Capa_1-2" data-name="Capa 1">
    <g id="ISOLOGO_W" data-name="ISOLOGO W">
      <g class="cls-6">
        <polygon class="cls-2" points="91.13 56.41 91.13 16.46 99.44 16.46 99.44 33.36 113.74 16.46 124 16.46 107.32 35.62 124.6 56.41 113.96 56.41 99.44 38.65 99.44 56.41 91.13 56.41"/>
        <g class="cls-3">
          <path class="cls-2" d="M142.08,56.95c-2.91,0-5.61-.56-8.07-1.67-2.46-1.11-4.45-2.84-5.94-5.18-1.49-2.34-2.24-5.38-2.24-9.13v-24.51h8.31v24.51c0,2.31.65,4.24,1.94,5.8,1.29,1.56,3.29,2.35,5.99,2.35s4.69-.78,5.97-2.35c1.28-1.56,1.92-3.5,1.92-5.8v-24.51h8.37v24.51c0,3.74-.75,6.78-2.24,9.13-1.49,2.34-3.48,4.07-5.97,5.18-2.48,1.11-5.16,1.67-8.04,1.67"/>
          <path class="cls-2" d="M176.64,56.95c-2.59,0-4.8-.32-6.62-.95s-3.33-1.44-4.53-2.43c-1.21-.99-2.17-2.03-2.89-3.13-.72-1.1-1.25-2.14-1.6-3.13-.34-.99-.6-2.11-.78-3.37h8.42c.32,1.22.76,2.24,1.29,3.05.54.81,1.36,1.51,2.48,2.11,1.11.59,2.63.89,4.53.89,2.34,0,4.06-.5,5.18-1.48,1.11-.99,1.67-2.17,1.67-3.54,0-1.22-.42-2.19-1.27-2.91-.84-.72-2.15-1.26-3.92-1.62l-5.35-1.03c-2.16-.39-4.17-1.03-6.02-1.89-1.86-.86-3.36-2.06-4.51-3.59-1.15-1.53-1.73-3.5-1.73-5.91s.61-4.58,1.84-6.4c1.22-1.82,2.94-3.22,5.16-4.21,2.21-.99,4.81-1.48,7.8-1.48,2.81,0,5.14.4,6.99,1.22,1.86.81,3.33,1.8,4.43,2.97,1.1,1.17,1.91,2.35,2.43,3.54.52,1.19.95,2.57,1.27,4.16h-8.21c-.25-1.01-.61-1.84-1.08-2.48-.47-.65-1.18-1.22-2.13-1.73-.95-.51-2.26-.76-3.92-.76-2.27,0-3.91.5-4.91,1.48-1.01.99-1.51,2.06-1.51,3.21s.51,2.11,1.51,2.75c1.01.65,2.32,1.13,3.94,1.46l5.67,1.13c2.16.4,4.14,1.06,5.94,2,1.8.94,3.23,2.19,4.29,3.75,1.06,1.56,1.6,3.5,1.6,5.8s-.59,4.51-1.78,6.4c-1.19,1.89-2.93,3.38-5.23,4.48-2.3,1.1-5.13,1.65-8.48,1.65"/>
          <polygon class="cls-2" points="203.36 56.41 203.36 23.69 191.11 23.69 191.11 16.46 223.93 16.46 223.93 23.69 211.67 23.69 211.67 56.41 203.36 56.41"/>
          <path class="cls-2" d="M241.96,56.95c-3.31,0-6.23-.58-8.75-1.75-2.52-1.17-4.63-2.74-6.34-4.7-1.71-1.96-2.99-4.17-3.83-6.62-.84-2.45-1.27-4.95-1.27-7.5s.42-5.05,1.27-7.48c.84-2.43,2.12-4.62,3.83-6.56,1.71-1.94,3.82-3.5,6.34-4.67,2.52-1.17,5.43-1.75,8.75-1.75s6.28.59,8.8,1.75c2.52,1.17,4.62,2.72,6.31,4.67,1.69,1.94,2.96,4.13,3.81,6.56.84,2.43,1.27,4.92,1.27,7.48s-.42,5.06-1.27,7.5c-.85,2.45-2.12,4.65-3.81,6.62s-3.8,3.53-6.31,4.7c-2.52,1.17-5.45,1.75-8.8,1.75M241.96,49.44c2.52,0,4.64-.63,6.37-1.89,1.73-1.26,3.02-2.89,3.89-4.89.86-2,1.29-4.09,1.29-6.29s-.43-4.28-1.29-6.26c-.86-1.98-2.16-3.6-3.89-4.86-1.73-1.26-3.85-1.89-6.37-1.89s-4.64.63-6.34,1.89-3,2.88-3.86,4.86c-.86,1.98-1.29,4.06-1.29,6.26s.43,4.29,1.29,6.29c.86,2,2.15,3.62,3.86,4.89,1.71,1.26,3.82,1.89,6.34,1.89"/>
          <polygon class="cls-2" points="264.04 56.41 264.04 16.46 275.26 16.46 284.39 37.03 293.78 16.46 304.63 16.46 304.63 56.41 296.43 56.41 296.43 29.2 288.22 47.07 280.5 47.07 272.24 29.09 272.24 56.41 264.04 56.41"/>
          <path class="cls-2" d="M316.33,17.73c-.81,0-1.49-.18-2.03-.53-.55-.35-.96-.81-1.23-1.38-.27-.57-.41-1.16-.41-1.77s.14-1.2.41-1.77c.27-.57.68-1.03,1.23-1.39.55-.36,1.23-.54,2.03-.54s1.49.18,2.03.54c.55.36.96.82,1.23,1.39.27.57.41,1.16.41,1.77s-.14,1.2-.41,1.77c-.27.57-.68,1.03-1.23,1.38s-1.23.53-2.03.53M316.33,16.94c.62,0,1.15-.14,1.57-.42.42-.28.74-.64.95-1.08.21-.44.32-.9.32-1.38s-.11-.96-.32-1.4c-.21-.44-.53-.8-.95-1.08-.42-.28-.94-.42-1.57-.42s-1.17.14-1.59.42c-.42.28-.73.64-.94,1.08-.2.44-.31.9-.31,1.4s.1.94.31,1.38c.2.44.52.8.94,1.08.42.28.95.42,1.59.42M314.79,15.96v-3.85h1.7c.47,0,.84.11,1.13.33.29.22.43.54.43.97,0,.55-.24.93-.7,1.16l.76,1.4h-1.18l-.66-1.24h-.4v1.24h-1.08,0ZM316.47,13.02h-.6v.84h.6c.32,0,.48-.14.48-.42s-.16-.42-.48-.42"/>
          <rect class="cls-5" width="71.77" height="71.77"/>
          <path class="cls-4" d="M58.9,56.41l-11.33-20.56c2.84-6.19,5.73-12.37,8.62-18.54.31-.65.68-1.3.98-1.96h-10.23l-6.22,13.73v-13.73h-9.66v13.68l-6.22-13.68h-10.18l9.56,20.46-11.36,20.59h11.01l7.65-14.13,1.82-3.35,4.34,9.03,3.23-4.44,6.99,12.89h11.01Z"/>
        </g>
      </g>
    </g>
  </g>
</svg>