<?xml version="1.0" encoding="UTF-8"?>
<svg id="Capa_2" data-name="Capa 2" xmlns="http://www.w3.org/2000/svg" xmlns:xlink="http://www.w3.org/1999/xlink" viewBox="0 0 498 111.69">
  <defs>
    <style>
      .cls-1 {
        fill: none;
      }

      .cls-2 {
        fill: #010101;
      }

      .cls-3 {
        clip-path: url(#clippath-1);
      }

      .cls-4 {
        fill: #f5f5f5;
      }

      .cls-5 {
        fill: #bf1540;
      }

      .cls-6 {
        clip-path: url(#clippath);
      }
    </style>
    <clipPath id="clippath">
      <rect class="cls-1" width="498" height="111.69"/>
    </clipPath>
    <clipPath id="clippath-1">
      <rect class="cls-1" width="498" height="111.69"/>
    </clipPath>
  </defs>
  <g id="Capa_1-2" data-name="Capa 1">
    <g id="ISOLOGO_B" data-name="ISOLOGO B">
      <g class="cls-6">
        <polygon class="cls-2" points="141.81 87.79 141.81 25.61 154.75 25.61 154.75 51.91 177.01 25.61 192.98 25.61 167.02 55.44 193.9 87.79 177.35 87.79 154.75 60.15 154.75 87.79 141.81 87.79"/>
        <g class="cls-3">
          <path class="cls-2" d="M221.12,88.62c-4.53,0-8.73-.87-12.56-2.6-3.83-1.73-6.92-4.42-9.24-8.07-2.32-3.64-3.48-8.37-3.48-14.2V25.61h12.94v38.14c0,3.59,1.01,6.6,3.02,9.03,2.01,2.43,5.12,3.65,9.32,3.65s7.3-1.22,9.28-3.65c1.99-2.43,2.98-5.45,2.98-9.03V25.61h13.02v38.14c0,5.82-1.16,10.56-3.48,14.2-2.32,3.64-5.42,6.33-9.28,8.07-3.87,1.73-8.04,2.6-12.51,2.6"/>
          <path class="cls-2" d="M274.89,88.62c-4.03,0-7.46-.49-10.29-1.47s-5.18-2.24-7.06-3.78c-1.88-1.54-3.37-3.17-4.5-4.87-1.12-1.71-1.95-3.33-2.48-4.87-.53-1.54-.94-3.29-1.22-5.25h13.1c.5,1.9,1.18,3.48,2.01,4.75.84,1.26,2.12,2.35,3.87,3.28,1.73.92,4.09,1.38,7.06,1.38,3.64,0,6.32-.77,8.07-2.31,1.73-1.54,2.6-3.37,2.6-5.51,0-1.9-.66-3.41-1.97-4.53-1.31-1.12-3.35-1.96-6.09-2.52l-8.32-1.6c-3.36-.61-6.48-1.6-9.36-2.94-2.89-1.34-5.23-3.21-7.02-5.59-1.79-2.38-2.69-5.45-2.69-9.2s.95-7.13,2.86-9.95c1.9-2.83,4.58-5.01,8.03-6.56,3.44-1.54,7.49-2.31,12.14-2.31,4.37,0,8,.63,10.88,1.89,2.89,1.26,5.18,2.8,6.89,4.62,1.71,1.82,2.97,3.65,3.78,5.51.81,1.85,1.47,4,1.97,6.47h-12.77c-.39-1.57-.95-2.86-1.68-3.87-.72-1.01-1.84-1.9-3.32-2.69-1.48-.79-3.52-1.18-6.09-1.18-3.53,0-6.08.77-7.65,2.31-1.57,1.54-2.35,3.21-2.35,5s.79,3.28,2.35,4.28c1.57,1.01,3.61,1.77,6.13,2.27l8.82,1.77c3.36.62,6.44,1.65,9.24,3.11,2.8,1.46,5.03,3.41,6.67,5.84,1.65,2.43,2.48,5.45,2.48,9.03s-.92,7.02-2.78,9.95c-1.85,2.94-4.57,5.27-8.15,6.97-3.58,1.71-7.98,2.56-13.19,2.56"/>
          <polygon class="cls-2" points="316.48 87.79 316.48 36.87 297.41 36.87 297.41 25.61 348.48 25.61 348.48 36.87 329.41 36.87 329.41 87.79 316.48 87.79"/>
          <path class="cls-2" d="M376.55,88.62c-5.16,0-9.69-.91-13.61-2.73-3.92-1.82-7.21-4.26-9.87-7.31-2.67-3.06-4.65-6.48-5.97-10.29-1.31-3.81-1.97-7.7-1.97-11.68s.66-7.85,1.97-11.64c1.31-3.78,3.3-7.18,5.97-10.21,2.66-3.02,5.95-5.45,9.87-7.26,3.92-1.82,8.46-2.73,13.61-2.73s9.77.91,13.69,2.73c3.92,1.82,7.19,4.24,9.83,7.26,2.63,3.02,4.61,6.43,5.93,10.21,1.31,3.78,1.97,7.66,1.97,11.64s-.66,7.87-1.97,11.68c-1.32,3.81-3.29,7.24-5.93,10.29s-5.91,5.49-9.83,7.31c-3.92,1.82-8.49,2.73-13.69,2.73M376.55,76.94c3.92,0,7.22-.98,9.91-2.94,2.69-1.96,4.7-4.5,6.05-7.61,1.34-3.11,2.01-6.37,2.01-9.79s-.67-6.67-2.01-9.75c-1.34-3.08-3.36-5.6-6.05-7.56-2.69-1.97-5.99-2.94-9.91-2.94s-7.22.98-9.87,2.94-4.66,4.48-6.01,7.56c-1.34,3.08-2.01,6.32-2.01,9.75s.68,6.68,2.01,9.79c1.34,3.11,3.35,5.64,6.01,7.61,2.66,1.97,5.95,2.94,9.87,2.94"/>
          <polygon class="cls-2" points="410.91 87.79 410.91 25.61 428.38 25.61 442.58 57.62 457.19 25.61 474.08 25.61 474.08 87.79 461.32 87.79 461.32 45.44 448.55 73.25 436.53 73.25 423.68 45.27 423.68 87.79 410.91 87.79"/>
          <path class="cls-2" d="M492.29,27.6c-1.26,0-2.32-.28-3.17-.83-.85-.55-1.49-1.26-1.91-2.15-.42-.88-.64-1.8-.64-2.75s.21-1.87.64-2.75c.42-.88,1.06-1.6,1.91-2.16.85-.56,1.91-.84,3.17-.84s2.32.28,3.17.84c.85.56,1.49,1.28,1.91,2.16.42.88.64,1.8.64,2.75s-.21,1.87-.64,2.75c-.42.88-1.06,1.6-1.91,2.15s-1.91.83-3.17.83M492.29,26.36c.97,0,1.79-.21,2.44-.65.65-.44,1.15-.99,1.48-1.68.33-.68.5-1.4.5-2.14s-.17-1.5-.5-2.17c-.33-.68-.82-1.24-1.48-1.68-.65-.44-1.46-.65-2.44-.65s-1.81.21-2.47.65c-.65.44-1.14.99-1.46,1.68-.32.68-.48,1.41-.48,2.17s.16,1.46.48,2.14c.32.68.8,1.24,1.46,1.68.65.44,1.48.65,2.47.65M489.89,24.83v-6h2.64c.72,0,1.31.17,1.76.51.45.34.67.84.67,1.51,0,.85-.37,1.45-1.09,1.81l1.18,2.17h-1.84l-1.03-1.93h-.62v1.93h-1.68,0ZM492.5,20.26h-.93v1.3h.93c.5,0,.75-.21.75-.65s-.25-.65-.75-.65"/>
          <rect class="cls-5" width="111.69" height="111.69"/>
          <path class="cls-4" d="M91.67,87.79l-17.64-31.99c4.42-9.63,8.92-19.25,13.42-28.85.48-1.01,1.06-2.03,1.52-3.05h-15.93l-9.68,21.36v-21.36h-15.04v21.29l-9.68-21.29h-15.84l14.88,31.84-17.68,32.05h17.14l11.91-21.99,2.83-5.22,6.75,14.06,5.02-6.91,10.88,20.06h17.13Z"/>
        </g>
      </g>
    </g>
  </g>
</svg>