<?xml version="1.0" encoding="UTF-8"?>
<svg id="Capa_2" data-name="Capa 2" xmlns="http://www.w3.org/2000/svg" viewBox="0 0 683.68 230.5">
  <defs>
    <style>
      .cls-1 {
        fill: none;
      }

      .cls-2 {
        fill: #bf0d3e;
      }

      .cls-3 {
        fill: #f5f5f5;
      }
    </style>
  </defs>
  <g id="Capa_1-2" data-name="Capa 1">
    <g>
      <g>
        <polygon points="223.64 155.4 223.64 77.25 239.9 77.25 239.9 110.31 267.88 77.25 287.95 77.25 255.32 114.74 289.11 155.4 268.31 155.4 239.9 120.66 239.9 155.4 223.64 155.4"/>
        <path d="M323.32,156.45c-5.7,0-10.97-1.09-15.79-3.27-4.82-2.18-8.7-5.56-11.62-10.14-2.92-4.58-4.38-10.52-4.38-17.85v-47.94h16.26v47.94c0,4.51,1.27,8.29,3.8,11.35,2.53,3.06,6.44,4.59,11.72,4.59s9.17-1.53,11.67-4.59c2.5-3.06,3.75-6.85,3.75-11.35v-47.94h16.37v47.94c0,7.32-1.46,13.27-4.38,17.85-2.92,4.58-6.81,7.96-11.67,10.14-4.86,2.18-10.1,3.27-15.73,3.27"/>
        <path d="M390.91,156.45c-5.07,0-9.38-.62-12.94-1.85-3.56-1.23-6.51-2.81-8.87-4.75-2.36-1.94-4.24-3.98-5.65-6.12-1.41-2.15-2.45-4.19-3.12-6.12-.67-1.94-1.18-4.13-1.53-6.6h16.47c.63,2.39,1.48,4.38,2.53,5.97,1.06,1.58,2.67,2.96,4.86,4.12,2.18,1.16,5.14,1.74,8.87,1.74,4.58,0,7.95-.97,10.14-2.9,2.18-1.94,3.27-4.24,3.27-6.92,0-2.39-.83-4.29-2.48-5.7s-4.21-2.46-7.66-3.17l-10.46-2.01c-4.22-.77-8.15-2.01-11.77-3.7-3.63-1.69-6.57-4.03-8.82-7.02-2.25-2.99-3.38-6.85-3.38-11.56s1.2-8.96,3.59-12.51c2.39-3.56,5.76-6.3,10.09-8.24,4.33-1.94,9.41-2.9,15.26-2.9,5.49,0,10.05.79,13.68,2.38,3.63,1.59,6.51,3.52,8.66,5.81,2.15,2.29,3.73,4.59,4.75,6.92,1.02,2.32,1.85,5.03,2.48,8.13h-16.05c-.49-1.97-1.2-3.59-2.11-4.86-.91-1.27-2.31-2.39-4.17-3.38-1.86-.99-4.42-1.48-7.66-1.48-4.44,0-7.64.97-9.61,2.9-1.97,1.94-2.96,4.03-2.96,6.28s.99,4.12,2.96,5.38c1.97,1.27,4.54,2.22,7.71,2.85l11.09,2.22c4.22.78,8.09,2.08,11.62,3.91,3.52,1.83,6.32,4.28,8.39,7.34,2.08,3.06,3.12,6.85,3.12,11.35s-1.16,8.82-3.49,12.51c-2.32,3.7-5.74,6.62-10.24,8.76-4.5,2.15-10.03,3.22-16.58,3.22"/>
        <polygon points="443.18 155.4 443.18 91.4 419.21 91.4 419.21 77.25 483.41 77.25 483.41 91.4 459.44 91.4 459.44 155.4 443.18 155.4"/>
        <path d="M518.68,156.45c-6.48,0-12.18-1.14-17.11-3.43-4.93-2.29-9.06-5.35-12.41-9.19-3.35-3.84-5.85-8.15-7.5-12.94-1.65-4.79-2.48-9.68-2.48-14.68s.83-9.87,2.48-14.63c1.65-4.75,4.15-9.03,7.5-12.83,3.34-3.8,7.48-6.85,12.41-9.13,4.93-2.29,10.63-3.43,17.11-3.43s12.28,1.15,17.21,3.43c4.93,2.29,9.04,5.33,12.35,9.13,3.31,3.8,5.79,8.08,7.45,12.83,1.65,4.75,2.48,9.63,2.48,14.63s-.83,9.89-2.48,14.68c-1.66,4.79-4.14,9.1-7.45,12.94-3.31,3.84-7.43,6.9-12.35,9.19-4.93,2.29-10.67,3.43-17.21,3.43M518.68,141.77c4.93,0,9.08-1.23,12.46-3.7,3.38-2.46,5.91-5.65,7.6-9.56,1.69-3.91,2.53-8.01,2.53-12.3s-.84-8.38-2.53-12.25c-1.69-3.87-4.22-7.04-7.6-9.5-3.38-2.47-7.53-3.7-12.46-3.7s-9.07,1.23-12.41,3.7c-3.34,2.47-5.86,5.63-7.55,9.5-1.69,3.87-2.53,7.95-2.53,12.25s.85,8.39,2.53,12.3c1.69,3.91,4.21,7.09,7.55,9.56,3.34,2.47,7.48,3.7,12.41,3.7"/>
        <polygon points="561.87 155.4 561.87 77.25 583.83 77.25 601.68 117.49 620.05 77.25 641.28 77.25 641.28 155.4 625.23 155.4 625.23 102.18 609.18 137.13 594.08 137.13 577.92 101.96 577.92 155.4 561.87 155.4"/>
        <path d="M664.16,79.75c-1.59,0-2.92-.35-3.98-1.04-1.07-.69-1.87-1.59-2.4-2.7-.53-1.11-.8-2.26-.8-3.46s.27-2.35.8-3.46c.53-1.11,1.33-2.01,2.4-2.72,1.07-.7,2.4-1.06,3.98-1.06s2.92.35,3.98,1.06c1.07.7,1.87,1.61,2.4,2.72.53,1.11.8,2.26.8,3.46s-.27,2.35-.8,3.46c-.53,1.11-1.33,2.01-2.4,2.7-1.07.69-2.4,1.04-3.98,1.04M664.16,78.19c1.22,0,2.25-.27,3.07-.82.82-.55,1.44-1.25,1.86-2.11.42-.86.63-1.76.63-2.69s-.21-1.88-.63-2.73c-.42-.86-1.03-1.56-1.86-2.11-.82-.55-1.84-.82-3.07-.82s-2.28.27-3.11.82c-.82.55-1.43,1.25-1.84,2.11-.4.86-.6,1.77-.6,2.73s.2,1.84.6,2.69c.4.86,1.01,1.56,1.84,2.11.82.55,1.86.82,3.11.82M661.15,76.27v-7.54h3.32c.91,0,1.65.21,2.21.64.56.43.84,1.06.84,1.9,0,1.07-.46,1.82-1.37,2.27l1.48,2.73h-2.31l-1.29-2.42h-.78v2.42h-2.11ZM664.43,70.53h-1.17v1.64h1.17c.63,0,.94-.27.94-.82s-.31-.82-.94-.82"/>
        <rect class="cls-2" x="45.39" y="45.06" width="140.38" height="140.38"/>
        <path class="cls-3" d="M160.61,155.4l-22.17-40.21c5.56-12.11,11.21-24.2,16.87-36.26.6-1.27,1.33-2.55,1.91-3.83h-20.02l-12.17,26.85v-26.85h-18.9v26.76l-12.17-26.76h-19.91l18.7,40.02-22.22,40.28h21.54l14.97-27.64,3.56-6.56,8.49,17.67,6.31-8.69,13.68,25.22h21.51Z"/>
      </g>
      <rect class="cls-1" y="0" width="683.68" height="230.5"/>
    </g>
  </g>
</svg>